<?xml version="1.0" standalone="no"?>
<!DOCTYPE svg PUBLIC "-//W3C//DTD SVG 20010904//EN"
 "http://www.w3.org/TR/2001/REC-SVG-20010904/DTD/svg10.dtd">
<svg version="1.0" xmlns="http://www.w3.org/2000/svg"
 width="676.000000pt" height="334.000000pt" viewBox="0 0 676.000000 334.000000"
 preserveAspectRatio="xMidYMid meet">

<g transform="translate(0.000000,334.000000) scale(0.100000,-0.100000)"
fill="#000000" stroke="none">
<path d="M4075 3233 c-15 -49 -56 -180 -92 -293 -85 -268 -113 -358 -161 -513
-40 -127 -47 -145 -57 -136 -5 5 -39 117 -139 454 -32 105 -77 255 -101 335
-24 80 -49 164 -55 188 -12 48 -25 54 -34 15 -4 -16 -75 -255 -158 -533 -83
-278 -151 -509 -152 -515 0 -6 43 -10 114 -11 63 0 125 -1 138 -2 22 -2 22 -5
22 -127 0 -142 4 -137 -85 -106 l-49 17 3 46 c4 77 -54 126 -212 178 -38 12
-71 28 -73 35 -3 7 6 29 20 50 71 104 23 185 -110 185 -33 0 -64 3 -67 6 -3 4
0 16 8 28 19 26 19 36 -3 63 -15 21 -20 22 -54 11 -29 -8 -41 -8 -52 1 -13 11
-13 18 -1 51 14 39 13 40 -16 60 l-29 21 -30 -21 c-45 -32 -68 -20 -72 38 -3
41 -6 48 -32 57 -25 8 -31 6 -50 -18 -12 -15 -31 -27 -43 -27 -18 0 -23 8 -30
43 -8 39 -11 42 -44 45 -32 3 -39 -1 -57 -32 -27 -46 -48 -46 -69 -1 -15 32
-21 36 -52 33 -31 -3 -35 -7 -45 -43 -15 -52 -40 -57 -75 -15 l-27 33 -33 -17
c-29 -15 -32 -21 -29 -53 3 -44 -21 -66 -49 -45 -34 23 -46 25 -72 10 -19 -11
-25 -21 -22 -39 10 -66 8 -74 -24 -73 -16 0 -38 2 -49 5 -12 2 -26 -6 -39 -23
l-21 -28 22 -30 c31 -42 18 -63 -39 -64 -40 -1 -44 -3 -53 -34 -6 -23 -6 -36
2 -44 9 -9 6 -19 -14 -40 -19 -19 -28 -41 -32 -76 -4 -47 -3 -49 27 -62 42
-17 43 -54 1 -75 -25 -13 -30 -22 -30 -51 0 -35 3 -37 53 -48 41 -9 44 -32 10
-69 -26 -28 -29 -36 -21 -59 9 -25 15 -28 54 -28 54 0 65 -18 39 -66 -16 -30
-17 -37 -5 -60 13 -23 18 -25 62 -19 56 8 67 -5 49 -57 -11 -30 -10 -35 16
-55 l27 -22 33 20 c21 13 40 18 54 14 18 -6 21 -13 16 -47 -5 -37 -3 -40 29
-55 33 -16 34 -16 54 10 12 15 31 27 44 27 19 0 25 -8 32 -42 8 -40 12 -43 44
-46 32 -3 38 1 53 33 22 47 52 47 71 0 13 -31 19 -35 50 -35 34 0 36 2 47 45
9 37 16 45 34 45 13 0 30 -11 39 -25 31 -48 93 -21 88 37 -5 54 17 65 70 36
24 -13 44 -24 46 -24 2 -1 -6 -17 -17 -35 -27 -43 -26 -71 0 -95 20 -18 21
-18 70 34 27 28 55 52 63 52 7 0 25 9 40 21 35 27 34 65 -3 109 l-29 35 20 28
c19 27 19 27 -2 62 -30 49 -21 66 32 63 39 -3 43 -1 59 32 9 19 23 35 30 36 8
0 28 4 46 8 18 4 39 3 50 -3 10 -6 93 -46 186 -90 l167 -80 0 -115 0 -116 43
0 c67 0 71 6 63 99 -4 44 -5 85 -2 90 3 5 32 2 67 -7 52 -14 67 -24 100 -64
22 -26 60 -56 87 -69 26 -12 72 -46 104 -77 31 -30 60 -52 66 -48 14 8 21 67
11 93 -4 11 -24 37 -43 57 -29 29 -36 43 -36 75 0 49 -35 81 -87 81 -24 0 -52
13 -96 43 -34 24 -88 54 -119 67 l-56 23 -7 91 c-4 50 -5 118 -3 151 l3 60
273 3 272 2 0 -330 0 -330 53 0 52 0 -3 335 -4 335 142 0 c130 0 141 1 136 18
-29 93 -296 1037 -296 1047 0 8 -4 16 -9 20 -5 3 -22 -34 -36 -82z m-1775
-565 c0 -13 -7 -72 -15 -133 -8 -60 -15 -116 -15 -122 0 -9 -17 -13 -53 -13
-28 0 -67 -4 -85 -9 -30 -9 -37 -5 -122 60 -49 38 -90 74 -90 79 0 13 79 75
130 100 56 29 163 59 213 59 32 1 37 -2 37 -21z m206 -34 c29 -13 76 -44 105
-67 l53 -42 -58 -7 c-51 -7 -62 -5 -96 17 -21 14 -58 28 -81 31 -41 7 -41 7
-35 43 3 20 6 42 6 50 0 17 35 9 106 -25z m-19 -105 c24 -11 43 -25 43 -29 0
-15 -44 -40 -70 -40 -16 0 -36 -11 -52 -30 -33 -37 -93 -43 -103 -10 -11 33
14 90 49 111 40 25 79 24 133 -2z m436 -45 c103 -13 127 -81 60 -171 -21 -30
-26 -31 -49 -21 -24 11 -26 15 -20 60 7 53 8 52 -63 48 -26 -1 -41 6 -67 31
-24 24 -34 28 -34 17 0 -29 58 -68 101 -68 38 0 39 -1 33 -27 -4 -16 -8 -30
-10 -31 -1 -2 -30 11 -64 29 -40 21 -67 43 -77 63 -15 28 -17 29 -24 11 -14
-37 -9 -57 31 -117 22 -33 40 -69 40 -80 0 -33 -70 -18 -142 31 -67 45 -90 49
-141 25 -26 -13 -44 -14 -78 -7 -24 5 -87 5 -139 1 -52 -4 -174 -12 -270 -17
-96 -6 -191 -15 -210 -21 -52 -15 -132 -12 -158 6 -30 20 -29 65 2 101 23 26
27 27 47 14 61 -37 114 -61 136 -61 13 0 92 18 176 39 131 34 170 40 284 43
l132 3 83 58 83 57 150 -5 c83 -3 167 -8 188 -11z m-986 -97 c18 -12 33 -27
33 -32 0 -12 -126 -42 -152 -37 -24 5 -23 24 7 83 l26 50 27 -21 c15 -11 42
-31 59 -43z m515 41 c-6 -6 -15 -8 -19 -4 -4 4 -1 11 7 16 19 12 27 3 12 -12z
m396 -126 c18 -14 56 -33 85 -43 231 -80 298 -115 319 -167 7 -19 7 -36 -1
-57 -13 -35 -11 -38 59 -60 59 -19 130 -54 130 -65 0 -18 -214 -28 -225 -11
-3 5 -47 32 -99 59 -125 66 -167 100 -160 129 6 21 3 22 -31 16 -33 -5 -37 -4
-31 13 5 17 0 19 -54 19 -41 0 -64 5 -69 14 -5 8 -16 11 -25 8 -18 -7 -76 11
-76 24 0 12 32 11 64 -1 17 -6 35 -6 52 0 24 9 26 14 21 47 -4 20 -18 53 -32
74 -14 21 -25 43 -25 49 0 13 51 -13 98 -48z m-239 -63 c24 -14 39 -29 34 -32
-12 -8 -53 3 -53 13 0 5 -18 11 -40 15 -46 8 -58 20 -33 33 20 12 33 7 92 -29z
m-510 5 c30 -6 32 -9 29 -43 l-3 -36 -150 -62 c-82 -34 -158 -63 -167 -63 -18
0 -23 12 -33 81 -8 61 1 95 28 104 19 6 143 19 233 23 17 1 46 -1 63 -4z m241
-14 c45 -45 9 -130 -55 -130 -67 0 -105 91 -56 132 31 24 86 23 111 -2z m220
-20 c0 -5 12 -13 28 -16 15 -4 49 -18 76 -31 26 -13 59 -25 72 -26 36 -3 26
-21 -18 -34 -22 -6 -68 -26 -102 -43 l-63 -32 -62 48 c-39 30 -60 53 -56 62 3
7 5 21 5 31 0 10 15 25 33 34 36 18 87 22 87 7z m353 -154 c51 -30 100 -61
110 -68 17 -13 17 -14 -2 -16 -22 -3 -94 -4 -133 -1 -13 0 -59 -2 -102 -7 -95
-9 -121 -27 -111 -77 9 -45 43 -93 119 -173 36 -38 66 -76 66 -86 0 -18 -49
-58 -72 -58 -7 0 -32 -21 -55 -47 -40 -46 -42 -47 -60 -30 -17 17 -17 19 10
66 46 84 40 105 -77 251 -105 131 -102 171 15 235 43 23 158 62 192 64 4 1 49
-23 100 -53z m-718 -6 c16 -18 16 -25 0 -152 -26 -207 -28 -214 -50 -210 -36
6 -126 51 -176 87 -53 40 -144 154 -132 166 4 4 37 19 73 33 36 14 103 41 150
60 99 41 111 43 135 16z m246 -56 c35 -27 65 -59 74 -80 8 -19 31 -55 51 -79
42 -52 40 -59 -34 -102 -73 -43 -241 -80 -263 -58 -4 3 25 247 41 343 0 5 44
21 58 21 8 1 40 -20 73 -45z m281 -76 c-6 -6 -16 -7 -23 -3 -9 6 -7 12 7 22
21 15 34 -1 16 -19z m821 -38 c30 -11 81 -39 113 -62 39 -27 75 -44 108 -49
64 -11 86 -32 86 -81 0 -31 8 -47 40 -82 29 -31 40 -52 40 -74 0 -47 -14 -46
-59 3 -23 25 -62 55 -87 67 -45 21 -64 38 -154 133 -60 64 -115 87 -215 92
-81 4 -139 19 -130 33 3 4 39 11 80 15 41 4 75 11 75 16 0 15 46 10 103 -11z
m-5 -100 c25 -11 42 -23 39 -26 -8 -8 -146 25 -177 43 -23 13 -20 14 34 8 33
-3 80 -15 104 -25z"/>
<path d="M505 1363 c-264 -35 -424 -221 -425 -493 0 -233 122 -394 338 -445
123 -30 275 -7 359 54 51 37 106 142 101 192 -3 33 -4 32 -20 -21 -24 -75 -59
-124 -116 -157 -44 -26 -55 -28 -157 -28 -130 0 -165 14 -238 95 -77 86 -113
213 -104 365 17 283 197 463 401 403 65 -19 145 -106 182 -197 33 -82 54 -103
50 -49 -2 18 -4 84 -5 146 -1 113 -9 133 -36 95 -12 -16 -17 -15 -86 5 -75 21
-184 43 -203 41 -6 -1 -24 -4 -41 -6z"/>
<path d="M1455 1363 c-156 -28 -239 -67 -326 -154 -106 -105 -155 -252 -132
-397 34 -222 248 -402 478 -402 219 0 436 170 484 380 53 230 -95 476 -331
549 -66 20 -139 31 -173 24z m140 -47 c88 -40 157 -137 190 -264 52 -202 12
-400 -104 -526 -62 -66 -108 -86 -200 -86 -93 0 -143 22 -205 91 -113 126
-151 321 -101 514 51 194 156 295 305 295 47 0 79 -7 115 -24z"/>
<path d="M2074 1331 c3 -4 19 -11 35 -14 16 -3 42 -17 57 -31 l29 -24 0 -370
0 -371 -28 -29 c-16 -17 -44 -33 -63 -37 -19 -3 -34 -10 -34 -15 0 -12 403
-14 414 -3 4 4 -14 14 -40 23 -79 25 -88 51 -92 251 l-4 167 144 3 c133 4 147
6 201 33 83 40 112 87 112 180 -1 84 -24 137 -82 185 -66 55 -107 61 -395 61
-145 0 -257 -4 -254 -9z m483 -43 c116 -77 115 -290 -3 -355 -35 -19 -111 -29
-191 -24 -10 1 -13 48 -13 199 0 109 3 202 8 206 4 4 41 6 83 4 62 -2 83 -8
116 -30z"/>
<path d="M3240 1295 c-11 -26 -20 -49 -20 -51 0 -4 -27 -72 -176 -452 -100
-254 -134 -311 -199 -332 -66 -22 -36 -30 111 -30 112 0 145 3 142 13 -3 6
-14 13 -26 15 -12 2 -33 17 -48 35 -23 27 -26 38 -21 77 3 25 21 86 41 135
l34 90 148 0 148 0 48 -120 c50 -124 53 -152 20 -188 -8 -10 -35 -23 -59 -28
-23 -6 -40 -15 -37 -20 7 -12 424 -12 424 1 0 5 -18 14 -39 20 -23 6 -51 24
-68 43 -31 35 -42 61 -237 532 -103 250 -127 301 -145 303 -17 3 -25 -6 -41
-43z m38 -267 c28 -68 58 -140 67 -160 l15 -38 -134 0 -134 0 40 103 c21 56
49 128 61 160 11 31 24 57 28 57 4 0 30 -55 57 -122z"/>
<path d="M3777 1258 c-14 -169 -5 -202 27 -102 22 70 75 126 137 143 25 7 83
13 129 14 l85 2 3 -320 c4 -391 -1 -455 -35 -495 -13 -16 -42 -35 -63 -41 -22
-7 -37 -16 -34 -20 7 -12 401 -11 409 0 3 6 -10 13 -30 17 -22 4 -46 19 -64
39 -39 45 -43 96 -39 500 l3 320 44 3 c61 5 166 -14 209 -36 48 -25 100 -94
108 -143 4 -21 12 -39 18 -39 8 0 10 34 6 117 l-5 118 -451 3 -451 2 -6 -82z"/>
<path d="M4740 1331 c0 -6 9 -11 20 -11 37 0 81 -30 96 -65 11 -27 14 -103 14
-373 0 -336 0 -339 -23 -373 -15 -23 -37 -38 -65 -47 -23 -8 -42 -18 -42 -23
0 -11 403 -12 414 -2 4 4 -14 14 -40 23 -82 26 -88 43 -92 246 l-3 174 31 0
c84 0 133 -52 222 -234 29 -60 64 -132 78 -160 l25 -51 235 -3 c129 -1 241 0
250 4 10 4 1 12 -30 27 -81 40 -85 81 -23 243 l37 95 145 -3 145 -3 44 -104
c58 -139 61 -159 27 -199 -15 -18 -35 -32 -45 -32 -10 0 -25 -3 -34 -6 -47
-18 4 -24 199 -24 134 0 215 4 215 10 0 5 -12 12 -27 16 -97 20 -83 -6 -331
594 -105 254 -121 285 -141 285 -23 0 -38 -36 -248 -580 -87 -227 -136 -295
-213 -295 -35 0 -43 5 -69 40 -15 21 -63 107 -105 190 -53 104 -87 158 -111
177 l-33 27 51 17 c187 63 199 308 19 396 l-57 28 -267 3 c-188 3 -268 0 -268
-7z m413 -22 c166 -42 195 -297 43 -390 -23 -14 -50 -19 -103 -19 l-73 0 0
210 0 210 46 0 c25 0 64 -5 87 -11z m898 -305 c34 -82 63 -155 66 -161 4 -10
-25 -13 -126 -13 -72 0 -131 3 -131 6 0 4 56 156 111 303 5 13 12 22 14 19 3
-2 32 -72 66 -154z"/>
<path d="M3430 270 c19 -13 30 -13 30 0 0 6 -10 10 -22 10 -19 0 -20 -2 -8
-10z"/>
<path d="M268 225 c-38 -21 -48 -77 -21 -113 11 -15 28 -29 38 -31 16 -3 16 0
-3 24 -54 68 9 164 70 108 16 -14 18 -14 18 -1 0 28 -60 36 -102 13z"/>
<path d="M485 231 c42 -9 64 -66 42 -110 -9 -17 -12 -31 -7 -31 14 0 50 51 50
72 0 31 -54 78 -87 77 l-28 -1 30 -7z"/>
<path d="M677 233 c48 -9 70 -87 36 -125 -26 -29 -7 -33 21 -5 25 25 32 59 20
92 -8 19 -56 46 -81 44 -13 -1 -12 -3 4 -6z"/>
<path d="M788 231 c10 -6 13 -28 10 -80 -3 -67 -2 -71 19 -71 19 0 21 4 16 40
-5 39 -5 40 24 40 50 0 74 48 34 70 -24 12 -122 14 -103 1z m87 -31 c0 -18 -6
-26 -22 -28 -20 -3 -23 1 -23 28 0 27 3 31 23 28 16 -2 22 -10 22 -28z"/>
<path d="M928 233 c8 -3 12 -29 12 -79 0 -68 2 -74 20 -74 17 0 19 5 14 25 -3
14 -3 32 0 41 5 13 9 14 21 4 12 -10 15 -9 15 8 0 15 -5 19 -20 15 -17 -5 -20
0 -20 27 0 32 0 33 40 27 23 -3 38 -1 34 4 -3 5 -33 9 -67 8 -34 0 -56 -3 -49
-6z"/>
<path d="M1078 231 c10 -6 13 -28 10 -80 -3 -67 -2 -71 18 -71 18 0 21 6 20
32 -1 47 14 49 37 6 10 -21 25 -38 33 -38 18 0 18 2 -8 46 -20 33 -20 37 -5
46 23 12 21 45 -2 58 -24 12 -122 14 -103 1z m87 -31 c0 -18 -6 -26 -22 -28
-20 -3 -23 1 -23 28 0 27 3 31 23 28 16 -2 22 -10 22 -28z"/>
<path d="M1288 222 c-3 -10 1 -27 8 -37 20 -27 18 -33 -13 -38 -26 -4 -26 -4
5 -6 28 -1 33 -5 39 -31 4 -21 11 -30 24 -30 22 0 23 3 10 28 -6 9 -21 43 -35
75 -14 31 -27 57 -29 57 -3 0 -7 -8 -9 -18z"/>
<path d="M1387 233 c-4 -3 -7 -13 -7 -21 0 -13 3 -13 18 1 10 10 26 17 35 17
14 0 17 -12 17 -75 0 -65 2 -75 18 -75 15 0 17 8 14 75 -4 74 -4 75 20 75 13
0 29 -5 36 -12 9 -9 12 -8 12 5 0 15 -11 17 -78 17 -43 0 -82 -3 -85 -7z"/>
<path d="M1568 231 c10 -6 13 -28 10 -80 -3 -66 -1 -71 17 -71 19 0 20 6 17
75 -3 69 -2 75 16 75 25 0 33 -12 62 -83 12 -31 26 -57 31 -57 14 0 11 20 -12
79 -16 43 -18 56 -7 62 7 5 -21 9 -67 9 -48 0 -75 -4 -67 -9z"/>
<path d="M1766 225 c4 -8 7 -15 9 -15 1 0 8 7 15 15 10 13 9 15 -8 15 -15 0
-20 -5 -16 -15z"/>
<path d="M2215 160 c0 -50 4 -80 11 -80 6 0 9 22 6 61 -3 39 -1 60 6 58 5 -2
28 -28 51 -56 44 -56 61 -65 61 -33 0 11 -4 20 -9 20 -5 0 -28 25 -51 55 -61
79 -75 75 -75 -25z"/>
<path d="M2331 224 c8 -10 15 -12 17 -5 5 15 32 14 32 -1 0 -9 3 -9 12 0 7 7
23 12 36 12 24 0 24 -1 20 -75 -3 -67 -1 -75 14 -75 16 0 18 10 18 76 l0 77
30 -6 c17 -4 30 -2 30 3 0 6 -46 10 -111 10 -101 0 -110 -1 -98 -16z"/>
<path d="M2565 230 c3 -5 6 -41 6 -80 0 -60 3 -70 18 -70 15 0 16 8 13 65 -3
43 0 70 8 80 11 13 8 15 -19 15 -19 0 -30 -4 -26 -10z"/>
<path d="M2718 233 c6 -2 18 -2 25 0 6 3 1 5 -13 5 -14 0 -19 -2 -12 -5z"/>
<path d="M2885 228 c-53 -28 -62 -93 -19 -127 15 -12 32 -21 39 -21 7 0 18 -7
25 -15 14 -16 56 -20 64 -6 3 5 -3 11 -14 14 -20 5 -20 6 5 31 66 66 -17 170
-100 124z m79 -20 c18 -26 21 -61 6 -88 -8 -14 -19 -18 -46 -16 -42 4 -54 18
-54 63 0 59 63 86 94 41z"/>
<path d="M3038 228 c7 -7 12 -36 12 -64 0 -52 16 -84 43 -84 8 0 7 4 -1 12
-16 16 -16 135 1 141 6 3 -6 6 -27 6 -31 1 -37 -2 -28 -11z"/>
<path d="M3160 225 c7 -9 16 -12 19 -8 4 4 10 11 15 16 5 4 -3 7 -19 7 -24 0
-26 -2 -15 -15z"/>
<path d="M3224 224 c18 -18 22 -95 6 -125 -10 -17 -7 -19 19 -19 29 0 30 1 19
24 -13 30 -4 58 17 50 8 -3 15 -1 15 5 0 6 -9 11 -20 11 -16 0 -20 7 -20 31 0
31 1 32 40 26 23 -3 38 -1 34 4 -3 5 -32 9 -65 9 -55 0 -59 -1 -45 -16z"/>
<path d="M3393 203 c105 -116 106 -118 107 -100 0 30 -92 137 -118 137 -22 0
-21 -2 11 -37z"/>
<path d="M3488 228 c9 -9 15 -9 24 0 9 9 7 12 -12 12 -19 0 -21 -3 -12 -12z"/>
<path d="M3606 224 c-4 -9 -2 -22 3 -28 5 -6 11 -20 13 -31 1 -11 7 -23 11
-26 5 -4 10 -18 10 -33 2 -20 7 -26 24 -26 l23 0 -26 58 c-14 31 -30 67 -35
80 -10 26 -15 27 -23 6z"/>
<path d="M3778 231 c10 -6 13 -28 10 -80 -3 -66 -1 -71 17 -71 19 0 20 5 17
75 -4 73 -4 75 19 75 30 0 43 -9 58 -37 16 -32 14 -57 -10 -87 -17 -21 -18
-26 -5 -26 24 0 56 37 56 65 0 38 -26 82 -52 89 -35 9 -125 7 -110 -3z"/>
<path d="M3970 225 c7 -9 10 -38 8 -80 -3 -61 -2 -65 19 -65 19 0 21 4 16 41
-6 39 -5 41 16 34 12 -4 21 -2 21 4 0 6 -9 11 -20 11 -16 0 -20 7 -20 31 0 30
2 31 35 27 19 -2 35 0 35 4 0 4 -28 8 -61 8 -53 0 -60 -2 -49 -15z"/>
<path d="M4160 223 c0 -13 3 -14 12 -5 7 7 23 12 36 12 23 0 24 -2 20 -75 -3
-69 -2 -75 17 -75 19 0 20 6 17 76 l-4 77 31 -6 c18 -4 31 -2 31 3 0 6 -35 10
-80 10 -69 0 -80 -2 -80 -17z"/>
<path d="M4350 219 c7 -13 10 -46 8 -80 -4 -57 -3 -59 20 -59 20 0 22 3 12 14
-13 17 -10 58 6 63 6 2 19 -15 29 -37 10 -22 24 -40 32 -40 17 0 16 4 -3 42
-13 26 -14 35 -3 55 21 38 2 57 -60 61 -51 3 -52 3 -41 -19z m75 -19 c0 -18
-6 -26 -22 -28 -20 -3 -23 1 -23 28 0 27 3 31 23 28 16 -2 22 -10 22 -28z"/>
<path d="M4672 220 c7 -11 16 -20 19 -20 3 0 26 -25 50 -55 45 -57 59 -66 59
-39 0 23 -100 134 -122 134 -16 0 -16 -3 -6 -20z"/>
<path d="M4783 229 c14 -8 22 -8 30 0 8 8 3 11 -18 11 -26 -1 -28 -2 -12 -11z"/>
<path d="M4862 228 c-23 -23 -14 -55 24 -77 30 -18 35 -26 30 -46 -5 -19 -3
-23 8 -19 38 15 28 55 -20 83 -37 22 -46 56 -16 64 13 4 13 5 2 6 -9 0 -21 -4
-28 -11z"/>
<path d="M4980 225 c8 -10 11 -37 8 -80 -3 -56 -2 -65 13 -65 12 0 16 9 15 38
-1 35 1 37 31 40 43 4 62 36 37 63 -22 25 -125 29 -104 4z m79 -9 c17 -20 3
-46 -25 -46 -20 0 -24 5 -24 30 0 23 5 30 19 30 10 0 24 -6 30 -14z"/>
<path d="M5155 228 c-64 -34 -62 -105 4 -143 11 -6 10 -2 -2 16 -37 51 -12
129 41 129 45 0 70 -84 35 -122 -22 -25 2 -23 27 2 61 61 -27 161 -105 118z"/>
<path d="M5308 231 c10 -6 13 -28 10 -80 -3 -67 -2 -71 19 -71 19 0 21 4 16
34 -8 50 13 53 37 6 11 -22 27 -40 35 -40 19 0 19 2 -7 46 -20 33 -20 37 -5
46 23 12 21 45 -2 58 -24 12 -122 14 -103 1z m86 -16 c8 -23 -4 -45 -25 -45
-14 0 -19 7 -19 30 0 23 5 30 19 30 10 0 21 -7 25 -15z"/>
<path d="M5450 231 c0 -6 16 -7 36 -4 l36 6 -4 -77 c-3 -65 -1 -76 13 -76 14
0 15 11 11 75 -5 74 -4 75 20 75 13 0 29 -5 36 -12 9 -9 12 -8 12 5 0 15 -11
17 -80 17 -44 0 -80 -4 -80 -9z"/>
<path d="M5685 228 c-3 -9 -2 -25 4 -37 17 -31 13 -41 -16 -42 -24 -1 -23 -2
7 -8 29 -5 36 -11 38 -34 3 -21 9 -27 27 -27 l23 0 -19 43 c-55 120 -57 122
-64 105z"/>
<path d="M5798 231 c10 -6 13 -28 10 -80 -3 -66 -1 -71 17 -71 19 0 20 6 17
75 -4 74 -3 75 21 75 33 0 61 -34 61 -75 0 -19 -8 -43 -19 -55 -15 -16 -15
-20 -3 -20 26 0 50 37 50 77 0 56 -36 83 -110 83 -35 0 -52 -4 -44 -9z"/>
<path d="M6025 228 c-30 -17 -44 -40 -45 -68 0 -32 26 -70 47 -70 15 0 14 2 0
18 -36 39 -10 122 38 122 13 0 31 -7 39 -16 18 -18 21 -76 6 -104 -9 -16 -8
-18 5 -14 36 14 46 78 18 113 -21 26 -80 36 -108 19z"/>
<path d="M6184 224 c12 -11 15 -31 12 -80 -3 -55 -1 -64 14 -64 13 0 17 8 16
32 -1 47 14 49 37 6 10 -21 25 -38 33 -38 18 0 18 3 -6 49 -16 33 -17 40 -5
45 21 8 18 43 -4 56 -11 5 -41 10 -66 10 -42 0 -45 -1 -31 -16z m81 -24 c0
-18 -6 -26 -22 -28 -20 -3 -23 1 -23 28 0 27 3 31 23 28 16 -2 22 -10 22 -28z"/>
<path d="M6339 231 c10 -6 12 -27 9 -80 -3 -68 -3 -71 18 -71 20 0 22 4 17 41
-6 39 -5 41 16 34 12 -4 21 -2 21 4 0 6 -9 11 -20 11 -16 0 -20 7 -20 30 0 25
4 30 23 30 13 0 28 -5 35 -12 9 -9 12 -8 12 5 0 14 -10 17 -62 17 -40 0 -58
-4 -49 -9z"/>
<path d="M411 204 c-35 -44 -24 -86 29 -114 24 -12 24 -12 8 6 -26 30 -32 69
-15 104 19 37 6 39 -22 4z"/>
<path d="M610 208 c-28 -30 -26 -73 6 -105 28 -28 47 -24 21 5 -22 24 -22 80
0 104 9 10 11 18 5 18 -6 0 -20 -10 -32 -22z"/>
<path d="M1873 208 c2 -13 8 -31 11 -40 6 -13 1 -17 -21 -21 -27 -4 -27 -4 5
-6 28 -1 33 -5 39 -31 4 -23 11 -30 28 -30 23 0 23 0 5 35 -10 19 -25 53 -34
75 -17 43 -42 56 -33 18z"/>
<path d="M2097 210 c-3 -11 -2 -20 3 -20 4 0 10 -9 13 -21 5 -18 2 -20 -19
-16 -13 2 -24 0 -24 -4 0 -5 13 -9 29 -9 30 0 50 -28 36 -50 -4 -6 5 -10 20
-10 15 0 25 4 23 8 -34 84 -63 142 -68 142 -4 0 -10 -9 -13 -20z"/>
<path d="M2668 213 c-35 -40 -30 -89 11 -120 24 -19 36 -15 18 5 -25 28 -31
68 -14 102 17 33 9 40 -15 13z"/>
<path d="M2775 197 c14 -34 11 -71 -8 -94 -15 -20 7 -16 26 5 28 30 30 65 7
95 -29 37 -42 34 -25 -6z"/>
<path d="M4550 215 c0 -9 9 -35 20 -57 11 -23 20 -50 20 -60 0 -12 7 -18 21
-18 24 0 22 10 -18 96 -24 53 -43 70 -43 39z"/>
<path d="M4910 226 c0 -2 7 -9 15 -16 12 -10 15 -10 15 4 0 9 -7 16 -15 16 -8
0 -15 -2 -15 -4z"/>
<path d="M6491 216 c-16 -19 -4 -42 35 -65 36 -21 42 -39 22 -59 -8 -8 -8 -12
-1 -12 19 0 35 29 29 54 -3 13 -18 29 -35 36 -30 12 -46 35 -35 51 8 14 -2 11
-15 -5z"/>
<path d="M6555 220 c3 -5 10 -10 16 -10 5 0 9 5 9 10 0 6 -7 10 -16 10 -8 0
-12 -4 -9 -10z"/>
<path d="M4528 143 c6 -2 18 -2 25 0 6 3 1 5 -13 5 -14 0 -19 -2 -12 -5z"/>
<path d="M2052 108 c-16 -16 -15 -28 1 -28 7 0 13 9 13 20 0 11 -1 20 -1 20
-1 0 -6 -5 -13 -12z"/>
<path d="M4840 105 c0 -8 4 -15 10 -15 5 0 7 7 4 15 -4 8 -8 15 -10 15 -2 0
-4 -7 -4 -15z"/>
<path d="M1040 95 c-10 -12 -10 -15 4 -15 9 0 16 7 16 15 0 8 -2 15 -4 15 -2
0 -9 -7 -16 -15z"/>
<path d="M3330 95 c-10 -12 -10 -15 4 -15 9 0 16 7 16 15 0 8 -2 15 -4 15 -2
0 -9 -7 -16 -15z"/>
<path d="M3556 101 c-4 -7 -5 -15 -2 -18 9 -9 19 4 14 18 -4 11 -6 11 -12 0z"/>
<path d="M6445 99 c-4 -6 -5 -13 -2 -16 7 -7 27 6 27 18 0 12 -17 12 -25 -2z"/>
<path d="M6480 100 c0 -5 5 -10 11 -10 5 0 7 5 4 10 -3 6 -8 10 -11 10 -2 0
-4 -4 -4 -10z"/>
<path d="M1230 90 c0 -5 7 -10 16 -10 8 0 12 5 9 10 -3 6 -10 10 -16 10 -5 0
-9 -4 -9 -10z"/>
<path d="M1815 90 c-3 -5 1 -10 9 -10 9 0 16 5 16 10 0 6 -4 10 -9 10 -6 0
-13 -4 -16 -10z"/>
<path d="M3375 90 c-3 -5 1 -10 9 -10 9 0 16 5 16 10 0 6 -4 10 -9 10 -6 0
-13 -4 -16 -10z"/>
<path d="M4065 90 c-3 -5 1 -10 9 -10 9 0 16 5 16 10 0 6 -4 10 -9 10 -6 0
-13 -4 -16 -10z"/>
<path d="M4495 90 c-3 -5 1 -10 9 -10 9 0 16 5 16 10 0 6 -4 10 -9 10 -6 0
-13 -4 -16 -10z"/>
<path d="M4670 90 c0 -5 7 -10 16 -10 8 0 12 5 9 10 -3 6 -10 10 -16 10 -5 0
-9 -4 -9 -10z"/>
<path d="M5625 90 c-3 -5 1 -10 9 -10 9 0 16 5 16 10 0 6 -4 10 -9 10 -6 0
-13 -4 -16 -10z"/>
</g>
</svg>
